# Blender v2.93.8 OBJ File: 'room.blend'
# www.blender.org
o Cube
v 4.486080 -0.046315 -5.000000
v 4.486080 0.046315 -5.000000
v 4.486080 -0.046315 5.000000
v 4.486080 0.046315 5.000000
v 4.198018 0.046315 -5.000000
v 4.198018 -0.046315 5.000000
v 4.198018 0.046315 5.000000
v 4.198018 -0.046315 -5.000000
v 4.198018 5.546315 5.000000
v 4.486080 5.546315 5.000000
v 4.486080 5.546315 -5.000000
v 4.198018 5.546315 -5.000000
v 4.486080 -0.046315 -4.763834
v 4.486080 0.046315 -4.763834
v 4.198018 0.046315 -4.763834
v 4.198018 -0.046315 -4.763834
v 4.486080 5.546315 -4.763834
v 4.198018 5.546315 -4.763834
v 4.198018 5.546315 -5.000000
v 4.198018 5.546315 -4.763834
v 4.486080 -0.046315 4.691100
v 4.198018 0.046315 4.691100
v 4.198018 -0.046315 4.691100
v 4.198018 5.546315 4.691100
v 4.486080 0.046315 4.691100
v 4.486080 5.546315 4.691100
v 4.198018 5.546315 5.000000
v 4.198018 5.546315 4.691100
v -4.486080 -0.046315 -5.000000
v -4.486080 0.046315 -5.000000
v -4.486080 -0.046315 5.000000
v -4.486080 0.046315 5.000000
v 0.000000 -0.046315 -5.000000
v 0.000000 0.046315 -5.000000
v 0.000000 -0.046315 5.000000
v 0.000000 0.046315 5.000000
v -4.198018 0.046315 -5.000000
v -4.198018 -0.046315 5.000000
v -4.198018 0.046315 5.000000
v -4.198018 -0.046315 -5.000000
v -4.198018 5.546315 5.000000
v -4.486080 5.546315 5.000000
v -4.486080 5.546315 -5.000000
v -4.198018 5.546315 -5.000000
v 0.000000 0.046315 -4.763834
v -4.486080 -0.046315 -4.763834
v 0.000000 -0.046315 -4.763834
v -4.486080 0.046315 -4.763834
v -4.198018 0.046315 -4.763834
v -4.198018 -0.046315 -4.763834
v -4.486080 5.546315 -4.763834
v -4.198018 5.546315 -4.763834
v -4.198018 5.546315 -5.000000
v 0.000000 5.546315 -5.000000
v 0.000000 5.546315 -4.763834
v -4.198018 5.546315 -4.763834
v 0.000000 0.046315 4.691100
v -4.486080 -0.046315 4.691100
v -4.198018 0.046315 4.691100
v -4.198018 -0.046315 4.691100
v -4.198018 5.546315 4.691100
v 0.000000 -0.046315 4.691100
v -4.486080 0.046315 4.691100
v -4.486080 5.546315 4.691100
v 0.000000 5.546315 4.691100
v 0.000000 5.546315 5.000000
v -4.198018 5.546315 5.000000
v -4.198018 5.546315 4.691100
vt 0.875000 0.742278
vt 0.641053 0.750000
vt 0.641053 0.742278
vt 0.625000 0.766053
vt 0.375000 1.000000
vt 0.375000 0.766053
vt 0.375000 0.750000
vt 0.375000 0.750000
vt 0.625000 0.742278
vt 0.375000 0.742278
vt 0.625000 0.483947
vt 0.375000 0.500000
vt 0.375000 0.483947
vt 0.625000 0.250000
vt 0.375000 0.250000
vt 0.358947 0.742278
vt 0.125000 0.742278
vt 0.125000 0.742278
vt 0.625000 0.750000
vt 0.375000 0.742278
vt 0.358947 0.750000
vt 0.358947 0.742278
vt 0.358947 0.500000
vt 0.358947 0.505904
vt 0.358947 0.505904
vt 0.375000 0.483947
vt 0.375000 0.505904
vt 0.375000 0.500000
vt 0.358947 0.500000
vt 0.641053 0.500000
vt 0.625000 0.505904
vt 0.625000 0.500000
vt 0.358947 0.500000
vt 0.875000 0.500000
vt 0.641053 0.505904
vt 0.125000 0.505904
vt 0.125000 0.500000
vt 0.125000 0.505904
vt 0.358947 0.505904
vt 0.375000 0.250000
vt 0.358947 0.750000
vt 0.375000 0.505904
vt 0.875000 0.505904
vt 0.358947 0.742278
vt 0.125000 0.750000
vt 0.375000 0.766053
vt 0.000000 0.000000
vt 0.000000 0.000000
vt 0.000000 0.000000
vt 0.641053 0.750000
vt 0.641053 0.742278
vt 0.625000 0.766053
vt 0.375000 0.766053
vt 0.625000 0.244096
vt 0.375000 0.244096
vt 0.375000 0.750000
vt 0.375000 0.750000
vt 0.625000 0.742278
vt 0.375000 0.742278
vt 0.375000 0.500000
vt 0.625000 0.483947
vt 0.375000 0.483947
vt 0.358947 0.742278
vt 0.625000 0.750000
vt 0.358947 0.750000
vt 0.375000 0.742278
vt 0.358947 0.742278
vt 0.358947 0.505904
vt 0.358947 0.500000
vt 0.358947 0.505904
vt 0.375000 0.483947
vt 0.375000 0.500000
vt 0.375000 0.505904
vt 0.358947 0.500000
vt 0.625000 0.505904
vt 0.641053 0.500000
vt 0.625000 0.500000
vt 0.358947 0.500000
vt 0.625000 0.007722
vt 0.375000 0.007722
vt 0.641053 0.505904
vt 0.375000 0.244096
vt 0.358947 0.505904
vt 0.625000 0.000000
vt 0.375000 0.000000
vt 0.358947 0.750000
vt 0.375000 0.505904
vt 0.358947 0.742278
vt 0.375000 0.000000
vt 0.375000 0.766053
vt 0.000000 0.000000
vt 0.875000 0.750000
vt 0.625000 1.000000
vt 0.375000 0.766053
vt 0.375000 0.483947
vt 0.358947 0.750000
vt 0.375000 1.000000
vt 0.000000 0.000000
vt 0.000000 0.000000
vt 0.375000 0.766053
vt 0.375000 0.483947
vt 0.358947 0.750000
vt 0.375000 0.007722
vt 0.000000 0.000000
vt 0.000000 0.000000
vn 0.0000 1.0000 0.0000
vn 0.0000 0.0000 -1.0000
vn -1.0000 0.0000 0.0000
vn 0.0000 0.0000 1.0000
vn 0.0000 -1.0000 0.0000
vn 1.0000 0.0000 0.0000
s off
f 62/1/1 6/2/1 23/3/1
f 6/4/2 36/5/2 7/6/2
f 7/6/2 10/7/2 4/8/2
f 21/9/3 4/8/3 25/10/3
f 8/11/4 2/12/4 5/13/4
f 33/14/4 5/13/4 34/15/4
f 22/16/4 65/17/4 57/18/4
f 3/19/2 7/6/2 4/8/2
f 23/3/1 3/19/1 21/9/1
f 26/20/5 9/21/5 24/22/5
f 5/23/6 18/24/6 15/25/6
f 4/8/3 26/20/3 25/10/3
f 2/12/4 12/26/4 5/13/4
f 14/27/3 11/28/3 2/12/3
f 15/25/6 24/22/6 22/16/6
f 11/28/5 18/24/5 12/29/5
f 8/30/1 13/31/1 1/32/1
f 15/25/3 19/33/3 5/23/3
f 1/32/3 14/27/3 2/12/3
f 33/34/1 16/35/1 8/30/1
f 19/33/5 55/36/5 54/37/5
f 45/38/2 20/39/2 15/25/2
f 5/13/4 54/40/4 34/15/4
f 22/16/6 9/21/6 7/41/6
f 25/10/3 17/42/3 14/27/3
f 17/42/5 24/22/5 18/24/5
f 16/35/1 21/9/1 13/31/1
f 15/25/5 57/18/5 45/38/5
f 13/31/3 25/10/3 14/27/3
f 47/43/1 23/3/1 16/35/1
f 28/44/5 66/45/5 65/17/5
f 7/41/3 28/44/3 22/16/3
f 36/5/2 27/46/2 7/6/2
f 55/47/3 57/48/3 65/49/3
f 38/50/1 62/1/1 60/51/1
f 36/5/2 38/52/2 39/53/2
f 34/15/3 47/54/3 45/55/3
f 42/56/2 39/53/2 32/57/2
f 32/57/6 58/58/6 63/59/6
f 30/60/4 40/61/4 37/62/4
f 37/62/4 33/14/4 34/15/4
f 65/17/4 59/63/4 57/18/4
f 39/53/2 31/64/2 32/57/2
f 31/64/1 60/51/1 58/58/1
f 41/65/5 64/66/5 61/67/5
f 52/68/3 37/69/3 49/70/3
f 64/66/6 32/57/6 63/59/6
f 44/71/4 30/60/4 37/62/4
f 43/72/6 48/73/6 30/60/6
f 61/67/3 49/70/3 59/63/3
f 52/68/5 43/72/5 44/74/5
f 46/75/1 40/76/1 29/77/1
f 53/78/6 49/70/6 37/69/6
f 48/73/6 29/77/6 30/60/6
f 45/55/3 62/79/3 57/80/3
f 50/81/1 33/34/1 40/76/1
f 55/36/5 53/78/5 54/37/5
f 55/82/3 34/15/3 45/55/3
f 56/83/2 45/38/2 49/70/2
f 54/40/4 37/62/4 34/15/4
f 57/80/3 35/84/3 36/85/3
f 41/65/3 59/63/3 39/86/3
f 51/87/6 63/59/6 48/73/6
f 61/67/5 51/87/5 52/68/5
f 58/58/1 50/81/1 46/75/1
f 57/18/5 49/70/5 45/38/5
f 63/59/6 46/75/6 48/73/6
f 60/51/1 47/43/1 50/81/1
f 66/45/5 68/88/5 65/17/5
f 68/88/6 39/86/6 59/63/6
f 66/89/3 57/80/3 36/85/3
f 67/90/2 36/5/2 39/53/2
f 65/49/6 45/91/6 55/47/6
f 62/1/1 35/92/1 6/2/1
f 6/4/2 35/93/2 36/5/2
f 7/6/2 9/94/2 10/7/2
f 21/9/3 3/19/3 4/8/3
f 8/11/4 1/32/4 2/12/4
f 33/14/4 8/11/4 5/13/4
f 22/16/4 28/44/4 65/17/4
f 3/19/2 6/4/2 7/6/2
f 23/3/1 6/2/1 3/19/1
f 26/20/5 10/7/5 9/21/5
f 5/23/6 12/29/6 18/24/6
f 4/8/3 10/7/3 26/20/3
f 2/12/4 11/28/4 12/26/4
f 14/27/3 17/42/3 11/28/3
f 15/25/6 18/24/6 24/22/6
f 11/28/5 17/42/5 18/24/5
f 8/30/1 16/35/1 13/31/1
f 15/25/3 20/39/3 19/33/3
f 1/32/3 13/31/3 14/27/3
f 33/34/1 47/43/1 16/35/1
f 19/33/5 20/39/5 55/36/5
f 45/38/2 55/36/2 20/39/2
f 5/13/4 19/95/4 54/40/4
f 22/16/6 24/22/6 9/21/6
f 25/10/3 26/20/3 17/42/3
f 17/42/5 26/20/5 24/22/5
f 16/35/1 23/3/1 21/9/1
f 15/25/5 22/16/5 57/18/5
f 13/31/3 21/9/3 25/10/3
f 47/43/1 62/1/1 23/3/1
f 28/44/5 27/96/5 66/45/5
f 7/41/3 27/96/3 28/44/3
f 36/5/2 66/97/2 27/46/2
f 65/49/1 28/98/1 20/99/1
f 55/47/3 45/91/3 57/48/3
f 65/49/1 20/99/1 55/47/1
f 38/50/1 35/92/1 62/1/1
f 36/5/2 35/93/2 38/52/2
f 34/15/3 33/14/3 47/54/3
f 42/56/2 41/100/2 39/53/2
f 32/57/6 31/64/6 58/58/6
f 30/60/4 29/77/4 40/61/4
f 37/62/4 40/61/4 33/14/4
f 65/17/4 68/88/4 59/63/4
f 39/53/2 38/52/2 31/64/2
f 31/64/1 38/50/1 60/51/1
f 41/65/5 42/56/5 64/66/5
f 52/68/3 44/74/3 37/69/3
f 64/66/6 42/56/6 32/57/6
f 44/71/4 43/72/4 30/60/4
f 43/72/6 51/87/6 48/73/6
f 61/67/3 52/68/3 49/70/3
f 52/68/5 51/87/5 43/72/5
f 46/75/1 50/81/1 40/76/1
f 53/78/6 56/83/6 49/70/6
f 48/73/6 46/75/6 29/77/6
f 45/55/3 47/54/3 62/79/3
f 50/81/1 47/43/1 33/34/1
f 55/36/5 56/83/5 53/78/5
f 55/82/3 54/40/3 34/15/3
f 56/83/2 55/36/2 45/38/2
f 54/40/4 53/101/4 37/62/4
f 57/80/3 62/79/3 35/84/3
f 41/65/3 61/67/3 59/63/3
f 51/87/6 64/66/6 63/59/6
f 61/67/5 64/66/5 51/87/5
f 58/58/1 60/51/1 50/81/1
f 57/18/5 59/63/5 49/70/5
f 63/59/6 58/58/6 46/75/6
f 60/51/1 62/1/1 47/43/1
f 66/45/5 67/102/5 68/88/5
f 68/88/6 67/102/6 39/86/6
f 66/89/3 65/103/3 57/80/3
f 67/90/2 66/97/2 36/5/2
f 56/104/1 68/105/1 65/49/1
f 65/49/6 57/48/6 45/91/6
f 55/47/1 56/104/1 65/49/1
